<?xml version="1.0" encoding="utf-8"?>
<!-- Generator: Adobe Illustrator 26.1.0, SVG Export Plug-In . SVG Version: 6.00 Build 0)  -->
<svg version="1.1" id="Слой_1" xmlns="http://www.w3.org/2000/svg" xmlns:xlink="http://www.w3.org/1999/xlink" x="0px" y="0px"
	 viewBox="0 0 24 24" style="enable-background:new 0 0 24 24;" xml:space="preserve">
<style type="text/css">
	.st0{fill:none;}
</style>
<g>
	<path class="st0" d="M0,0h24 M24,24H0"/>
	<path d="M7,6h10l-5,6.3L7,6z M4.2,5.6C6.3,8.2,10,13,10,13v6c0,0.5,0.4,1,1,1h2c0.6,0,1-0.5,1-1v-6c0,0,3.7-4.8,5.7-7.4
		C20.2,4.9,19.8,4,19,4H5C4.2,4,3.7,4.9,4.2,5.6z"/>
	<path class="st0" d="M0,0h24v24H0V0z"/>
</g>
</svg>
